<?xml version="1.0" encoding="utf-8"?>
<!-- Generator: Adobe Illustrator 21.0.2, SVG Export Plug-In . SVG Version: 6.00 Build 0)  -->
<svg version="1.1" id="Layer_1" xmlns="http://www.w3.org/2000/svg" xmlns:xlink="http://www.w3.org/1999/xlink" x="0px" y="0px"
	 viewBox="0 0 155 221.6" style="enable-background:new 0 0 155 221.6;" xml:space="preserve">
<style type="text/css">
	.st0{fill:#FF6F56;}
</style>
<path class="st0" d="M77,0.5C34.3,0.5-0.5,35.3-0.5,78v144.1l29.2-25.6L53,220.8l24-24l24,24l24.3-24.3l29.2,25.6V78
	C154.5,35.3,119.7,0.5,77,0.5z M143.5,197.9l-18.8-16.4L101,205.2l-24-24l-24,24l-23.7-23.7l-18.8,16.4V78
	c0-36.7,29.8-66.5,66.5-66.5s66.5,29.8,66.5,66.5V197.9z"/>
<rect x="44.6" y="65.9" class="st0" width="11" height="22.9"/>
<rect x="98.4" y="65.9" class="st0" width="11" height="22.9"/>
<path class="st0" d="M105.1,103.9h-11c0,9.4-7.7,17.1-17.1,17.1s-17.1-7.7-17.1-17.1h-11c0,15.5,12.6,28.1,28.1,28.1
	S105.1,119.4,105.1,103.9z"/>
</svg>
