<?xml version="1.0" standalone="no"?>
<!DOCTYPE svg PUBLIC "-//W3C//DTD SVG 20010904//EN"
 "http://www.w3.org/TR/2001/REC-SVG-20010904/DTD/svg10.dtd">
<svg version="1.0" xmlns="http://www.w3.org/2000/svg"
 width="888.000000pt" height="888.000000pt" viewBox="0 0 888.000000 888.000000"
 preserveAspectRatio="xMidYMid meet">
<metadata>
Created by potrace 1.11, written by Peter Selinger 2001-2013
</metadata>
<g transform="translate(0.000000,888.000000) scale(0.100000,-0.100000)"
fill="#000000" stroke="none">
<path d="M4218 8855 c-2 -2 -37 -6 -78 -9 -41 -3 -86 -8 -100 -10 -14 -3 -43
-7 -65 -10 -22 -3 -51 -8 -65 -10 -14 -3 -38 -7 -55 -9 -160 -25 -528 -137
-645 -197 -19 -10 -38 -18 -43 -19 -45 -5 -403 -207 -523 -295 -23 -17 -55
-40 -70 -51 -15 -11 -41 -31 -58 -45 -17 -14 -39 -32 -50 -40 -124 -97 -333
-304 -432 -429 -10 -13 -27 -32 -36 -43 -10 -10 -18 -20 -18 -23 0 -3 -8 -15
-19 -26 -10 -11 -36 -45 -57 -77 -21 -31 -41 -59 -44 -62 -4 -3 -17 -23 -30
-45 -13 -22 -27 -42 -30 -45 -20 -16 -155 -271 -218 -410 -77 -170 -181 -496
-197 -619 -2 -14 -4 -27 -6 -28 -2 -4 -4 -12 -13 -68 -5 -27 -11 -61 -14 -75
-4 -14 -8 -1417 -9 -3119 l-3 -3094 22 19 c24 21 66 58 114 101 17 15 57 51
89 78 32 28 66 57 74 65 14 13 72 63 185 160 16 14 40 36 55 50 14 14 58 52
96 85 39 33 72 62 75 65 3 3 57 50 120 105 63 55 122 107 130 115 9 8 45 40
80 70 35 30 72 63 83 72 11 10 23 18 26 18 3 0 224 -218 490 -484 l485 -484
479 479 c263 263 480 479 482 479 2 0 219 -216 482 -479 l479 -479 485 484
c266 266 487 484 491 484 4 0 13 -6 20 -13 15 -15 265 -234 292 -257 10 -8 32
-27 48 -43 17 -15 53 -46 80 -70 28 -23 63 -53 78 -67 27 -25 134 -119 169
-149 91 -79 146 -128 155 -136 6 -5 45 -39 86 -75 41 -36 91 -79 110 -97 84
-75 106 -93 118 -93 10 0 12 579 9 3003 -2 1651 -7 3022 -10 3047 -3 25 -8 64
-11 88 -3 23 -8 59 -11 80 -3 20 -7 48 -10 62 -13 65 -15 77 -19 100 -2 14 -9
45 -16 70 -7 25 -13 52 -15 60 -20 101 -88 303 -157 464 -57 132 -142 301
-167 330 -9 10 -14 19 -11 20 5 1 -159 252 -186 284 -7 10 -27 35 -44 57 -107
136 -224 261 -360 385 -64 59 -98 88 -145 125 -27 22 -52 42 -55 45 -19 20
-196 139 -300 201 -222 134 -446 232 -700 308 -74 22 -146 43 -160 45 -14 3
-47 11 -75 16 -92 20 -186 36 -265 45 -30 4 -68 9 -85 11 -33 5 -502 13 -507
9z m487 -449 c17 -2 44 -6 60 -9 17 -4 50 -8 75 -11 25 -3 68 -10 95 -16 28
-6 62 -13 77 -16 15 -3 66 -16 115 -30 48 -14 95 -27 103 -29 8 -2 44 -15 80
-28 36 -14 88 -33 115 -43 70 -26 358 -172 367 -187 4 -7 8 -9 8 -5 0 6 88
-48 117 -72 7 -6 16 -10 22 -10 5 0 11 -3 13 -8 2 -4 28 -25 58 -47 30 -22 60
-44 66 -50 6 -5 33 -28 60 -50 83 -67 286 -275 366 -375 83 -105 188 -255 188
-269 0 -5 4 -11 9 -13 22 -8 221 -422 236 -492 1 -6 7 -24 14 -41 25 -60 57
-182 84 -315 23 -112 26 -131 32 -185 3 -27 9 -68 12 -90 9 -57 15 -5072 5
-5060 -4 6 -36 35 -72 65 -36 30 -67 57 -70 60 -3 3 -39 34 -80 70 -41 36 -77
67 -80 70 -3 3 -39 34 -80 70 -41 36 -77 67 -80 70 -3 3 -34 30 -70 60 -36 30
-81 69 -100 87 -19 17 -53 47 -74 66 l-40 35 -457 -457 c-251 -251 -465 -464
-476 -473 -19 -17 -33 -4 -494 457 -261 261 -479 475 -484 475 -6 0 -191 -181
-412 -402 -221 -222 -435 -436 -476 -477 l-75 -73 -471 471 c-259 259 -476
471 -481 471 -6 0 -23 -12 -38 -28 -16 -15 -54 -49 -87 -77 -32 -27 -70 -61
-86 -75 -15 -14 -48 -43 -74 -65 -26 -22 -54 -47 -63 -55 -10 -9 -51 -45 -92
-80 -41 -36 -80 -69 -86 -75 -70 -63 -97 -87 -144 -126 -83 -69 -81 -69 -79
-7 1 29 0 58 -1 63 -1 6 -2 12 0 15 5 15 4 180 -2 180 -4 0 -4 10 1 22 4 13 5
35 1 50 -5 14 -6 29 -3 32 5 5 7 157 2 181 -1 6 0 15 1 20 1 6 2 51 1 100 -2
166 -1 198 3 203 3 2 1 14 -4 27 -5 13 -6 26 -3 29 5 5 7 85 3 104 -2 4 -1 12
0 17 2 8 2 99 -1 270 0 6 2 58 3 118 2 59 0 107 -4 107 -4 0 -4 10 1 22 4 13
5 35 1 50 -5 14 -6 29 -3 32 5 5 7 157 2 181 -1 6 0 15 1 20 1 6 2 51 1 100
-2 166 -1 198 3 203 3 2 1 14 -4 27 -5 13 -6 26 -3 29 5 5 7 85 3 104 -2 4 -1
12 0 17 1 6 2 66 1 135 -1 69 -1 130 -1 135 -1 6 0 30 1 55 0 25 1 74 0 110 0
36 -1 103 -1 150 0 47 0 109 0 139 0 30 2 56 4 59 3 2 1 14 -4 27 -5 13 -6 26
-3 29 5 5 7 85 3 104 -2 4 -1 12 0 17 3 12 2 126 0 140 -1 6 -1 15 0 20 1 6 2
51 1 100 -2 166 -1 198 3 203 3 2 1 14 -4 27 -5 13 -6 26 -3 29 5 5 7 85 3
104 -2 4 -1 12 0 17 5 23 2 214 -4 223 -3 6 -3 13 2 16 8 5 7 79 -2 103 -3 7
-2 13 2 13 8 0 7 162 -1 184 -3 8 -3 17 1 20 8 5 6 80 -2 103 -3 7 -2 13 2 13
4 0 7 32 7 70 0 39 -4 70 -8 70 -5 0 -5 5 -2 11 4 5 8 54 10 108 3 88 20 261
31 315 2 11 7 36 10 55 3 18 8 43 10 55 3 11 7 32 10 46 3 14 10 43 16 65 5
22 11 47 13 55 2 8 18 60 36 115 18 55 34 102 34 105 9 31 100 235 107 238 4
2 8 10 8 17 0 17 91 177 165 290 131 203 366 458 577 628 25 20 49 37 53 37 5
0 18 10 49 36 7 7 46 33 87 60 373 242 799 389 1224 420 39 3 71 7 73 9 4 4
401 -4 437 -9z"/>
<path d="M3298 6245 c-4 -4 -44 -7 -90 -7 l-83 0 2 -451 c0 -249 1 -455 2
-459 1 -4 10 -5 21 -3 11 2 20 -1 20 -6 0 -6 5 -7 11 -3 6 3 95 6 198 6 l188
0 0 460 1 460 -25 -5 c-13 -2 -40 -1 -59 3 -19 5 -37 4 -40 -1 -3 -5 -12 -6
-20 -1 -8 5 -37 5 -64 2 -27 -4 -51 -2 -52 2 -2 5 -6 6 -10 3z"/>
<path d="M5370 6243 c0 -4 -20 -7 -43 -5 l-44 4 1 -459 1 -458 43 0 c23 0 42
-3 42 -8 0 -4 5 -5 11 -1 7 4 85 6 174 6 119 -1 164 2 167 11 2 7 3 212 3 457
l-1 445 -37 2 c-21 0 -44 4 -52 7 -8 3 -15 2 -15 -2 0 -4 -19 -6 -42 -4 -24 2
-52 3 -63 3 -75 -3 -127 -1 -135 4 -6 3 -10 3 -10 -2z"/>
<path d="M3303 4641 c6 -89 31 -214 57 -287 26 -75 92 -214 102 -214 4 0 8 -6
8 -12 0 -19 81 -123 147 -192 56 -58 166 -148 213 -175 70 -41 171 -90 206
-100 21 -7 46 -15 54 -18 80 -31 216 -49 345 -47 153 2 181 6 300 40 184 53
335 141 475 279 64 62 81 82 129 145 58 76 132 229 164 340 28 95 34 131 43
240 l6 75 -221 1 -221 0 -1 -25 c-2 -54 -5 -77 -24 -166 -6 -28 -52 -125 -81
-170 -133 -209 -351 -327 -594 -319 -101 3 -108 4 -188 28 -151 44 -308 171
-390 315 -23 40 -44 81 -45 90 -1 9 -6 21 -9 27 -4 6 -9 22 -12 37 -2 15 -7
31 -10 36 -3 5 -8 37 -10 71 -2 34 -7 65 -11 68 -4 4 -103 7 -222 8 l-215 0 5
-75z"/>
</g>
</svg>
